<svg xmlns="http://www.w3.org/2000/svg" width="77" height="35" viewBox="0 0 77 35" xmlns:xlink="http://www.w3.org/1999/xlink"><defs><path id="a" d="M0 .057v12.356h12.553V.057H0z"/><path id="c" d="M.067 12.404H10.15V.067H.067v12.337z"/><path id="e" d="M17.311 8.491V.017H.086v8.474h17.225z"/></defs><g fill="none" fill-rule="evenodd"><g transform="translate(0 .091)"><mask id="b" fill="#fff"><use xlink:href="#a"/></mask><path fill="#26334D" d="M6.216 12.413c1.494 0 2.542-.391 3.229-1.021.961-.817 1.339-1.89 1.442-3.285.051-.664.086-3.642.086-3.88 0-.239 0-2.655.034-2.826.052-.204.103-.68.739-.68h.704c.086 0 .103-.069.103-.17V.175c0-.051-.017-.12-.172-.12-.155 0-.704.052-1.889.052-1.15 0-1.94-.051-2.112-.051-.103 0-.12.034-.12.119v.408c0 .085.017.137.12.137h.755c.447 0 .722.306.773.748.052.426.086 1.413.086 2.706v3.643c0 1.26-.223 2.28-.893 2.995-.6.613-1.597.936-2.576.936-.996 0-2.095-.306-2.73-1.225-.395-.579-.532-1.379-.55-2.162-.017-.544-.085-2.706-.085-3.608V3.631c0-.868.017-2.06.034-2.213.034-.374.326-.697.824-.697h.859c.12 0 .137-.035.137-.12V.16c0-.068-.017-.102-.154-.102-.19 0-1.014.05-2.353.05-1.34 0-2.18-.05-2.352-.05C.017.057 0 .09 0 .193v.374c0 .12.017.154.12.154h.807c.533 0 .653.272.653.868v4.05c0 2.23.068 3.37.275 4.136.274 1.072.875 1.821 2.043 2.28.567.24 1.425.358 2.318.358" mask="url(#b)"/></g><path fill="#26334D" d="M19.949 6.636c0-.758-.038-1.923.056-2.774.037-.259.13-.388.597-.388h.186c.075 0 .112-.056.112-.13v-.388c0-.111-.037-.148-.13-.148-.131 0-.784.056-1.176.056-.597 0-1.4-.056-1.53-.056-.093 0-.13.037-.13.093v.443c0 .093.037.13.13.13h.317c.318 0 .597.11.69.333.094.221.15 1.294.15 1.738.037.592.056 1.165.056 2.219v1.22h-.075c-.224-.24-1.959-2.404-2.294-2.792a315.808 315.808 0 0 1-2.594-3.217c-.074-.111-.186-.148-.447-.148-.224 0-.616.037-.915.037a11.2 11.2 0 0 1-.746-.037c-.242 0-.448-.019-.485-.019a.107.107 0 0 0-.112.111v.444c0 .074.037.11.112.11h.168c.522 0 .989.315.989.98v1.943c0 2.089-.038 3.402-.056 3.624-.056.425-.355.555-.541.555h-.43c-.055 0-.074.018-.074.055v.48c0 .093.019.13.056.13.15 0 .989-.055 1.25-.055.541 0 1.287.055 1.418.055.093 0 .093-.037.093-.11v-.444c0-.074 0-.111-.093-.111h-.392c-.187 0-.392-.204-.448-.63-.037-.166-.112-2.015-.112-3.124V4.287h.038c.298.333 1.81 2.33 2.257 2.848.205.24 1.008 1.184 1.866 2.2.765.907 1.4 1.665 1.53 1.794.074.056.26.185.429.185.224 0 .28-.185.28-.351V6.636zm4.063-.185c0-.13.019-2.33.019-2.515.019-.388.187-.462.69-.462h.317c.094 0 .112-.056.112-.13V2.9c0-.055-.037-.092-.112-.092-.149 0-1.1.056-1.641.056-.877.018-2.034-.056-2.146-.056-.075 0-.112.037-.112.11v.426c0 .074.019.13.112.13h.336c.784 0 .951.185.951.388 0 .259.038 2.108.038 2.404v.814c0 .628-.019 2.977-.038 3.143-.037.333-.335.352-.802.352h-.41a.106.106 0 0 0-.112.11v.407c0 .093.037.148.112.148.112 0 1.194-.055 1.828-.055.84 0 1.81.055 1.96.055.092 0 .111-.055.111-.13v-.443c0-.055-.019-.092-.112-.092h-.28c-.54 0-.765-.26-.802-.685-.019-.277-.019-2.403-.019-2.515v-.924zm20.059-2.644c0-.333.28-.407.56-.407.746 0 1.268.166 1.772.48.336.222.616.722.616 1.276 0 .481-.317 1.924-2.388 1.924-.243 0-.43-.019-.56-.037V3.807zm-1.418 3.162c-.019 1.128 0 2.219-.019 3.125 0 .407-.224.48-.671.48h-.224c-.075 0-.112.038-.112.093v.425c0 .093.037.148.112.148.13 0 1.082-.055 1.548-.055.616 0 1.623.055 1.754.055.112 0 .15-.037.15-.13v-.443c0-.055-.038-.092-.112-.092h-.486c-.373 0-.485-.204-.522-.463V7.671c.13-.037.298-.037.485-.037.784 0 1.064.407 1.735 1.554.168.277.989 1.775 1.344 2.034.317-.019.764-.037 1.193-.037.187 0 .411.018.579.018.186.019.336.037.373.037.075 0 .112-.055.112-.13v-.37c0-.11-.019-.165-.093-.165-.336 0-.579-.019-.84-.204-.354-.259-.784-.813-1.045-1.183-.765-1.073-1.138-1.646-1.567-1.739v-.036c1.474-.518 2.202-1.258 2.202-2.534 0-.425-.243-.961-.653-1.35-.467-.407-1.306-.72-2.426-.72-.242 0-1.866.054-2.09.054-.335 0-1.492-.055-1.585-.055-.075 0-.112.037-.112.093v.443c0 .074.019.13.075.13h.186c.522 0 .69.203.71.573v2.922zm10.179 4.438c1.697 0 2.593-1.184 2.593-2.57 0-.925-.224-1.387-.597-1.776-.466-.48-1.157-.684-2.015-.998-.355-.13-1.026-.407-1.306-.759-.205-.24-.299-.628-.299-.906 0-.332.299-1.128 1.325-1.128.541 0 .952.185 1.231.5.392.443.541 1.09.653 1.313.02.055.056.092.112.073l.336-.073c.056-.019.075-.056.075-.111-.019-.26-.187-1.461-.187-2.071 0-.093-.018-.167-.168-.167-.149 0-.205 0-.242.056l-.075.129c-.037.092-.13.074-.317-.037-.224-.11-.616-.24-1.325-.24-.671 0-1.268.166-1.753.554-.41.352-.803.925-.803 1.554 0 .906.224 1.498.653 1.904.56.5 1.456.832 1.829.962.989.37 1.716.832 1.716 1.886 0 .795-.895 1.257-1.492 1.257-.69 0-1.306-.37-1.586-.924-.336-.61-.336-.999-.336-1.258 0-.074-.075-.11-.15-.129l-.335-.037c-.075 0-.112.056-.13.13-.02.295-.15 1.775-.206 2.292-.019.093.037.167.15.204.149.037.242 0 .28-.093l.055-.147c.037-.148.15-.13.28-.038.429.333 1.082.648 2.034.648m5.753-4.956c0-.13.019-2.33.019-2.515.019-.388.186-.462.69-.462h.317c.094 0 .112-.056.112-.13V2.9c0-.055-.037-.092-.112-.092-.149 0-1.1.056-1.641.056-.877.018-2.034-.056-2.146-.056-.074 0-.112.037-.112.11v.426c0 .074.019.13.112.13h.336c.783 0 .951.185.951.388 0 .259.038 2.108.038 2.404v.814c0 .628-.02 2.977-.038 3.143-.037.333-.336.352-.802.352h-.41a.106.106 0 0 0-.112.11v.407c0 .093.037.148.112.148.112 0 1.194-.055 1.828-.055.84 0 1.81.055 1.96.055.092 0 .11-.055.11-.13v-.443c0-.055-.018-.092-.11-.092h-.28c-.542 0-.766-.26-.803-.685-.019-.277-.019-2.403-.019-2.515v-.924zM9.245 16.55c-.283 0-.542-.222-.542-.597 0-.55.283-1.264.684-1.896.59-.947 1.216-1.392 1.712-1.392.39 0 .602.292.59.655 0 .773-1.215 3.23-2.443 3.23m.177.562c1.712 0 2.739-2.33 2.739-3.616 0-.796-.472-1.37-1.263-1.37-1.57 0-2.692 2.002-2.692 3.476 0 .89.567 1.51 1.216 1.51m19.083.297c0-.13.019-2.33.019-2.515.018-.389.186-.463.69-.463h.317c.093 0 .112-.055.112-.129v-.444c0-.055-.037-.092-.112-.092-.15 0-1.1.055-1.642.055-.877.019-2.033-.055-2.145-.055-.075 0-.112.037-.112.11v.426c0 .074.018.13.112.13h.335c.784 0 .952.184.952.388 0 .259.037 2.108.037 2.404v.813c0 .63-.019 2.977-.037 3.144-.037.333-.336.351-.802.351h-.41a.108.108 0 0 0-.113.111v.407c0 .092.038.148.112.148.112 0 1.194-.056 1.829-.056.84 0 1.81.056 1.959.056.093 0 .112-.056.112-.13v-.443c0-.056-.02-.093-.112-.093h-.28c-.541 0-.765-.259-.802-.684-.02-.277-.02-2.404-.02-2.515v-.924zm4.357-2.645c0-.333.28-.407.56-.407.746 0 1.268.167 1.772.481.336.222.616.721.616 1.276 0 .48-.318 1.923-2.388 1.923-.243 0-.43-.018-.56-.037v-3.236zm-1.525 3.162c-.019 1.128 0 2.22-.019 3.126 0 .406-.224.48-.672.48h-.224c-.074 0-.112.037-.112.093v.425c0 .092.038.148.112.148.131 0 1.083-.056 1.549-.056.616 0 1.623.056 1.754.056.111 0 .149-.037.149-.13v-.443c0-.056-.038-.093-.112-.093h-.485c-.373 0-.485-.203-.522-.462v-2.441c.13-.037.298-.037.485-.037.783 0 1.063.407 1.735 1.553.168.278.989 1.776 1.343 2.035.317-.02.765-.038 1.194-.038.187 0 .41.019.578.019.187.019.336.037.374.037.074 0 .111-.056.111-.13v-.37c0-.11-.018-.166-.093-.166-.336 0-.578-.018-.84-.203-.354-.259-.783-.814-1.044-1.184-.765-1.072-1.138-1.645-1.567-1.738v-.037c1.474-.518 2.201-1.257 2.201-2.533 0-.425-.242-.962-.653-1.35-.466-.407-1.306-.721-2.425-.721-.243 0-1.866.055-2.09.055-.336 0-1.492-.055-1.585-.055-.075 0-.113.037-.113.092v.444c0 .074.02.13.075.13h.187c.522 0 .69.203.709.573v2.921z"/><path fill="#26334D" d="M45.343 19.628c0-.315.355-.389.541-.389h.317c.056 0 .094-.055.094-.11v-.445c0-.055-.038-.092-.112-.092-.075 0-.914.037-1.605.037-1.007 0-1.921-.037-2.033-.037-.075 0-.094.037-.094.092v.444c0 .056.019.093.094.093h.447c.485 0 .914.13.914.555v.684c0 .37-.037.61-.28.795-.298.24-.895.407-1.548.407-.522 0-1.269-.278-1.79-.832-.728-.759-1.139-1.813-1.139-3.236 0-.833.41-1.813.97-2.423.69-.74 1.418-.943 1.996-.943.859 0 1.381.37 1.885.888a4.64 4.64 0 0 1 .895 1.313c.056.147.094.166.15.147l.354-.11c.056-.019.075-.056.075-.148-.038-.333-.28-2.053-.28-2.145 0-.13-.038-.204-.205-.204-.15 0-.206.056-.243.13l-.093.166c-.037.056-.112.056-.261-.074-.355-.259-1.232-.592-2.127-.592-1.325 0-2.463.389-3.34 1.128a4.032 4.032 0 0 0-1.38 3.033c0 1.442.373 2.44 1.119 3.255.877.961 2.37 1.35 3.34 1.35a7.038 7.038 0 0 0 3.19-.74c.13-.056.205-.111.205-.204 0-.092-.056-.203-.056-.37v-1.423z"/><path fill="#26334D" d="M48.984 17.409c0-.13.018-2.33.018-2.515.019-.389.187-.463.69-.463h.318c.093 0 .112-.055.112-.129v-.444c0-.055-.038-.092-.112-.092-.15 0-1.101.055-1.642.055-.877.019-2.034-.055-2.146-.055-.074 0-.111.037-.111.11v.426c0 .074.018.13.111.13h.336c.784 0 .952.184.952.388 0 .259.037 2.108.037 2.404v.813c0 .63-.019 2.977-.037 3.144-.038.333-.336.351-.802.351h-.41a.107.107 0 0 0-.113.111v.407c0 .092.037.148.112.148.112 0 1.194-.056 1.828-.056.84 0 1.81.056 1.96.056.093 0 .111-.056.111-.13v-.443c0-.056-.018-.093-.112-.093h-.28c-.54 0-.764-.259-.802-.684-.018-.277-.018-2.404-.018-2.515v-.924zm10.044.185c0-.759-.037-1.924.056-2.774.038-.26.13-.389.597-.389h.187c.075 0 .112-.055.112-.129v-.388c0-.111-.037-.148-.13-.148-.131 0-.784.055-1.176.055-.597 0-1.4-.055-1.53-.055-.093 0-.13.037-.13.092v.444c0 .093.037.13.13.13h.317c.317 0 .597.11.69.332.094.222.15 1.295.15 1.739.037.591.056 1.165.056 2.219v1.22h-.075c-.224-.24-1.959-2.404-2.295-2.792a317.686 317.686 0 0 1-2.593-3.218c-.075-.11-.186-.148-.448-.148-.224 0-.615.037-.914.037-.205 0-.504-.018-.746-.037-.243 0-.448-.018-.485-.018a.106.106 0 0 0-.112.11v.445c0 .074.037.11.112.11h.168c.522 0 .988.315.988.98v1.942c0 2.09-.037 3.403-.055 3.625-.057.425-.355.554-.542.554h-.429c-.056 0-.074.019-.074.056v.48c0 .093.018.13.056.13.149 0 .989-.055 1.25-.055.54 0 1.287.055 1.418.055.093 0 .093-.037.093-.111v-.444c0-.074 0-.11-.093-.11h-.392c-.187 0-.392-.204-.448-.63-.037-.166-.112-2.015-.112-3.125v-2.533h.037c.299.333 1.81 2.33 2.258 2.848.205.24 1.007 1.183 1.866 2.2.764.906 1.399 1.665 1.53 1.794.074.056.26.185.428.185.224 0 .28-.185.28-.351v-4.327zM13.48 12.758h-1.051c-.06 0-.088-.057-.064-.139l.047-.199c.023-.082.105-.27.2-.27h1.027c.354-1.006.697-1.825 1.323-2.515.33-.375.98-.796 1.748-.796.684 0 1.062.41 1.062.69 0 .363-.236.539-.472.539-.378 0-.484-.21-.52-.468-.011-.117-.13-.34-.484-.34-1.098 0-1.335 1.546-1.725 2.857 0 0 1.641.044 2.98.044 1.443 0 2.216-.052 2.37-.052.155 0 .172.052.172.12v.391c0 .085-.017.153-.137.153h-.825c-.48 0-.72.153-.72.443 0 .136.016.34.068.578.103.613.738 2.639 1.047 3.592.206.646 1.202 3.574 1.597 4.612.395-.8 1.735-4.306 1.872-4.698.172-.459.824-2.416 1.082-3.165.137-.426.24-.732.24-.97 0-.204-.12-.392-.55-.392h-.446c-.068 0-.086-.05-.086-.153v-.391c0-.085.018-.12.103-.12.155 0 .945.052 2.027.052 1.253 0 1.683-.052 1.837-.052.103 0 .12.035.12.12v.425c0 .068-.017.12-.12.12h-.463c-.567 0-.893.271-1.22.663-.446.545-1.82 4.034-2.112 4.749-.206.561-2.421 5.974-2.507 6.144-.069.136-.154.221-.24.221-.138 0-.206-.17-.292-.391-.55-1.566-1.94-5.447-2.164-6.06l-.172-.578c-.412-1.209-1.219-3.676-1.442-4.187-.172-.392-.343-.562-.704-.562l-1.597-.015c-.307.948-.85 2.95-1.44 4.448-.72 1.826-1.559 3.125-2.822 3.125-.473 0-.85-.316-.85-.69 0-.27.2-.504.507-.504.343 0 .52.328.555.527.024.117.107.199.201.199.567 0 1.204-.983 1.842-3.148l1.198-3.957zm49.691 4.65v.925c0 .111 0 2.238.02 2.515.036.425.26.684.801.684h.216a1 1 0 0 0 .765-.388c.13-.148 1.082-2.367 1.53-3.292.13-.258 1.23-2.773 1.343-3.088.037-.11.15-.314.018-.37-.037-.036-.093-.129-.074-.184-.019-.037.018-.093.186-.13.355-.055.877-.388 1.045-.536a.238.238 0 0 1 .224-.13c.112 0 .15.074.187.204.26.74 1.212 3.384 1.455 4.123.28.925 1.082 3.107 1.213 3.292.242.333.56.5.877.5h.354c.074 0 .093.055.093.11v.389c0 .055-.019.166-.13.166-.224 0-1.213-.056-1.642-.056-.355 0-1.456.056-1.698.056-.13 0-.15-.092-.15-.166v-.389c0-.055.02-.11.094-.11h.298c.224 0 .3-.167.3-.315-.076-.37-.58-1.85-.729-2.275h-3.003c-.075.222-.672 1.757-.747 1.98-.111.369-.056.61.336.61h.467c.112 0 .13.055.13.129v.407c0 .073-.018.129-.112.129-.15 0-1.138-.056-1.436-.056h-3.089c-.634 0-1.716.056-1.828.056-.075 0-.112-.056-.112-.148v-.407c0-.055.037-.11.112-.11h.41c.467 0 .765-.02.803-.352.018-.167.037-2.515.037-3.144v-.813c0-.296-.037-2.145-.037-2.404 0-.204-.168-.389-.952-.389h-.336c-.093 0-.112-.055-.112-.129v-.425c0-.074.038-.111.112-.111.112 0 1.269.074 2.146.055.54 0 1.492-.055 1.642-.055.074 0 .112.037.112.092v.444c0 .074-.019.13-.112.13h-.317c-.504 0-.672.073-.69.462 0 .185-.02 2.385-.02 2.515m3.873.943h2.537c-.075-.26-.952-3.033-.989-3.18-.037-.112-.056-.186-.112-.186s-.093.056-.15.204c-.055.148-1.193 2.977-1.286 3.162M29.046 2.938v.425c0 .074-.056.11-.13.11h-.43c-.243 0-.522.038-.522.278 0 .425.317 1.147.82 2.7.15.462.84 2.607.952 2.903h.056c.112-.388 1.026-2.681 1.12-2.959.708-2.052.95-2.551.95-2.736 0-.093-.074-.185-.39-.185h-.206c-.075 0-.112-.037-.112-.13V2.92c0-.055.037-.111.112-.111.112 0 1.082.056 1.511.056h2.852l4.18-.02c.186 0 .428-.036.503-.036.037 0 .074.037.112.259.037.166.56 1.757.597 1.886.018.074.018.111-.019.13l-.298.129c-.038.018-.112.018-.168-.074-.038-.055-.933-1.091-1.25-1.387a1.12 1.12 0 0 0-.71-.277L36.6 3.437V6.58c.112 0 1.213-.055 1.362-.092.485-.13.672-.388.672-.962 0-.074.018-.092.093-.092l.41.018c.075 0 .131.037.112.111-.037.167-.037 1.147-.037 1.313 0 .407.056.98.075 1.22 0 .075-.038.093-.094.093l-.392.037c-.055 0-.093 0-.111-.074-.094-.462-.206-.758-.69-.869-.56-.13-1.213-.13-1.4-.13v.63c0 .647.037 1.72.037 1.96 0 .869.541.924 1.344.924.82 0 1.343-.019 1.977-.518.15-.11.803-.943.99-1.239.092-.13.186-.148.242-.11l.298.166c.037.018.075.074.056.13l-.672 1.96c-.037.092-.13.184-.205.184-.13 0-1.12-.055-5.037-.055-.336 0-1.362.055-1.586.055-.093 0-.112-.055-.112-.13v-.424c0-.074.037-.111.13-.111h.169c.877 0 .933-.074.933-.333V6.303c0-.98-.02-2.182-.038-2.367-.056-.388-.168-.462-.914-.462h-.445c-.355 0-.616.11-.784.277-.354.351-1.362 2.774-1.548 3.255-.168.388-1.698 4.012-1.847 4.253-.056.092-.15.148-.299.148s-.242-.13-.298-.278c-.41-1.09-1.4-3.772-1.549-4.179l-.13-.407c-.317-.85-.877-2.533-1.008-2.718-.15-.203-.298-.351-.54-.351h-.187c-.075 0-.094-.056-.094-.111V2.9c0-.055.038-.092.112-.092.094 0 1.12.056 1.605.056.447 0 1.586-.056 1.697-.056.112 0 .15.037.15.13"/><g transform="translate(12.664 22.24)"><mask id="d" fill="#fff"><use xlink:href="#c"/></mask><path fill="#26334D" d="M1.806 5.512c0 1.041-.051 5.441-.051 5.765 0 .222-.104.461-.74.461H.187c-.104 0-.121.034-.121.12v.427c0 .085.017.119.138.119.224 0 .844-.051 2.204-.051 1.843 0 6.44.017 6.887.051.103-.46.792-3.427.844-3.547.017-.102.017.03-.035-.003L9.83 8.75c-.069-.034-.103 0-.138.069-.24.665-1.274 2.713-2.29 2.867-.534.068-3.58.034-3.96 0-.051-.7-.051-4.387-.051-4.677V5.392c0-1.194.051-3.772.051-3.994 0-.495.07-.665.603-.665h1.033c.138 0 .173-.052.173-.137V.203c0-.085-.018-.136-.155-.136-.155 0-.879.051-2.55.051C1.119.118.498.067.309.067c-.103 0-.12.034-.12.12v.375c0 .085.017.17.12.17h.81c.516 0 .602.171.637.615.017.307.051 2.117.051 3.209v.956z" mask="url(#d)"/></g><path fill="#26334D" d="M25.916 28.119c0-.131.018-2.356.018-2.542.02-.393.19-.468.698-.468h.32c.095 0 .114-.056.114-.13v-.45c0-.055-.038-.093-.113-.093-.151 0-1.113.056-1.66.056-.886.02-2.055-.056-2.168-.056-.076 0-.113.038-.113.113v.43c0 .074.018.13.113.13h.34c.791 0 .96.187.96.393 0 .261.039 2.13.039 2.43v.822c0 .635-.02 3.01-.038 3.177-.038.337-.34.356-.811.356H23.2a.108.108 0 0 0-.113.112v.41c0 .094.038.15.113.15.113 0 1.207-.056 1.848-.056.849 0 1.83.056 1.98.056.094 0 .113-.056.113-.13v-.45c0-.055-.019-.092-.113-.092h-.283c-.547 0-.773-.262-.81-.692-.02-.28-.02-2.43-.02-2.542v-.934zm37.061.99c.434-.654 2.622-3.7 2.904-3.85.17-.094.378-.15.68-.15h.188c.075 0 .113-.037.113-.13v-.393c0-.112-.038-.15-.132-.15-.113 0-.773.056-1.113.056-.565 0-1.508-.056-1.621-.056-.095 0-.132.056-.132.131v.411c0 .075.037.131.132.131h.301c.415 0 .396.243.246.542-.076.15-1.641 2.411-1.924 2.879-.302-.449-1.867-2.935-1.98-3.103-.075-.112-.056-.318.283-.318h.283c.113 0 .132-.056.132-.13v-.412c0-.093-.057-.13-.132-.13-.132 0-1.415.055-1.83.055-.452 0-1.433-.056-1.546-.056-.113 0-.15.056-.15.113v.41c0 .113.037.15.131.15h.264c.151 0 .49.038.68.225.3.28 2.601 3.626 2.771 3.962v.673c0 1.103 0 1.775-.019 1.944-.018.261-.132.374-.735.374h-.283a.108.108 0 0 0-.113.112v.41c0 .113.038.15.132.15.113 0 1.207-.056 1.622-.056.622 0 1.678.056 1.791.056.113 0 .151-.056.151-.13v-.45c0-.055-.038-.092-.132-.092h-.245c-.34 0-.641-.02-.679-.412-.038-.224-.019-.729-.038-1.196v-1.57zm-32.425-1.813c0-.785 0-1.813.018-2.056.02-.13.057-.224.17-.243.113-.018.245-.018.415-.018.358 0 1.075.13 1.452.41.471.356.566.823.566 1.215 0 .393-.189.88-.698 1.234-.377.243-1.056.318-1.923.262v-.804zm0 1.383c.603 0 1.15-.018 1.791.206.717.243 1.226.822 1.226 1.775 0 1.253-.962 1.739-1.81 1.739-.943 0-1.207-.524-1.207-1.42v-2.3zm-2.66-3.7c0 .112 0 .13.095.13h.358c.359 0 .717.019.755.654.018.206.056 1.514.056 1.982v1.383c0 .99 0 2.43-.056 2.691-.057.243-.227.468-.51.468h-.509c-.113 0-.132.018-.132.093v.392c0 .131.02.187.151.187.32 0 1-.056 1.509-.056.641 0 1.263.056 1.904.056 1.283 0 2.169-.187 2.678-.448.622-.28.98-1.14.98-1.794 0-1.253-.829-1.963-2.281-2.393v-.037c1.188-.43 1.754-.73 1.754-1.907 0-.691-.264-1.252-.98-1.626-.435-.224-1.227-.318-2.283-.318-.452 0-1.188.057-1.603.057-.32 0-1.602-.057-1.772-.057-.094 0-.113.038-.113.131v.412zm25.505.467v3.27c.132.02.321.038.566.038 2.093 0 2.414-1.458 2.414-1.944 0-.56-.283-1.065-.622-1.29-.51-.317-1.038-.485-1.792-.485-.283 0-.566.074-.566.41m-1.433 3.197v-2.953c-.019-.374-.188-.58-.716-.58h-.189c-.056 0-.075-.056-.075-.13v-.45c0-.055.037-.093.113-.093.094 0 1.263.057 1.603.057.226 0 1.867-.057 2.112-.057 1.131 0 1.98.318 2.451.73.415.392.66.934.66 1.364 0 1.29-.735 2.037-2.225 2.56.434.131.811.71 1.584 1.795.264.374.698.934 1.056 1.196.264.187.51.206.849.206.075 0 .094.056.094.168v.374c0 .074-.038.13-.113.13-.038 0-.189-.018-.377-.037-.17 0-.396-.019-.585-.019-.434 0-.886.019-1.207.038-.358-.262-1.188-1.776-1.357-2.056-.68-1.159-.962-1.57-1.754-1.57-.189 0-.359 0-.49.037v2.468c.037.262.15.468.527.468h.49c.076 0 .114.037.114.093v.449c0 .093-.038.13-.151.13-.132 0-1.15-.056-1.773-.056-.317 0-.743.013-1.217.043-.155.002-.242.003-.398.003-.516 0-1.008-.046-1.322-.046-.358 0-1.47.056-1.716.056-.132 0-.15-.093-.15-.168V32.4c0-.056.018-.112.093-.112h.302c.226 0 .302-.169.302-.318-.076-.374-.585-1.87-.736-2.3h-3.036c-.075.225-.679 1.776-.754 2-.113.375-.057.618.34.618h.47c.114 0 .133.056.133.13v.412c0 .074-.019.13-.113.13-.064 0-1.115-.042-1.828-.044-.64-.003-.998.024-1.642.026-.358-.262-1.188-1.776-1.358-2.056-.679-1.159-.962-1.57-1.754-1.57-.188 0-.358 0-.49.037v2.467c.038.262.15.468.528.468h.49c.076 0 .113.037.113.093v.449c0 .093-.037.13-.15.13-.132 0-1.15-.056-1.773-.056-.471 0-1.433.056-1.565.056-.075 0-.113-.056-.113-.149v-.43c0-.056.038-.093.113-.093h.226c.453 0 .68-.075.68-.486.018-.916 0-2.02.018-3.16V25.69c-.019-.374-.189-.58-.717-.58h-.188c-.057 0-.076-.056-.076-.13v-.45c0-.055.038-.093.114-.093.094 0 1.263.057 1.602.057.227 0 1.867-.057 2.112-.057 1.132 0 1.98.318 2.452.73.415.392.66.934.66 1.364 0 1.29-.736 2.037-2.225 2.56.433.131.81.71 1.584 1.795.264.374.698.934 1.056 1.196a.503.503 0 0 0 .245-.187c.132-.15 1.094-2.392 1.546-3.327.132-.262 1.245-2.804 1.358-3.121.038-.112.15-.318.019-.374-.038-.037-.094-.13-.075-.187-.02-.037.018-.093.188-.13.358-.057.886-.393 1.056-.543a.24.24 0 0 1 .226-.13c.113 0 .151.074.189.205.264.748 1.226 3.42 1.47 4.168.284.934 1.095 3.14 1.227 3.327.245.336.565.505.886.505h.26c.452 0 .678-.075.678-.486.02-.916 0-2.02.02-3.16m-6.955.43h2.565c-.076-.26-.962-3.065-1-3.214-.037-.112-.056-.187-.113-.187-.056 0-.094.056-.15.206-.057.15-1.207 3.009-1.302 3.196m-7.279-3.626v3.27c.132.02.32.038.566.038 2.093 0 2.414-1.458 2.414-1.944 0-.56-.283-1.065-.623-1.29-.509-.317-1.037-.485-1.791-.485-.283 0-.566.074-.566.41"/><g transform="translate(59.445 2.749)"><mask id="f" fill="#fff"><use xlink:href="#e"/></mask><path fill="#26334D" d="M.713.031C.736.015.729.015.785.021c.29.032 1.35.13 3.4.13h.746c.61 0 1.266-.024 1.977-.053.357-.01 2.549.017 2.997.017.41 0 1.679-.056 1.81-.056.074 0 .13.037.13.13v.406c0 .074-.019.13-.13.13h-.28c-.336 0-.355.203-.28.314.112.167 1.66 2.626 1.959 3.07.28-.462 1.828-2.7 1.902-2.848.15-.296.169-.536-.242-.536h-.298c-.094 0-.131-.056-.131-.13V.19c0-.074.037-.13.13-.13.113 0 1.045.056 1.605.056.336 0 .989-.056 1.1-.056.094 0 .131.037.131.148v.388c0 .093-.037.13-.112.13h-.186c-.299 0-.504.055-.672.148-.28.148-2.444 3.162-2.873 3.809v1.553c.019.463 0 .962.037 1.184.038.388.336.407.672.407h.243c.093 0 .13.037.13.092v.444c0 .074-.037.13-.15.13-.111 0-1.156-.056-1.772-.056-.41 0-1.492.055-1.604.055-.093 0-.13-.037-.13-.148v-.406c0-.056.037-.111.111-.111h.28c.597 0 .71-.111.728-.37.018-.167.018-.832.018-1.923v-.666c-.167-.333-2.444-3.643-2.742-3.92C9.13.79 8.866.74 8.699.727c.11.502.26 1.159.32 1.477.019.074-.019.111-.093.148l-.317.093c-.112.037-.168.018-.206-.074-.223-.463-.54-1.073-.932-1.424C7.004.78 5.639.762 5.303.762v3.106c0 1.942 0 3.329.02 3.477.036.296.13.48.428.48h.71c.093 0 .13.056.13.167v.388c0 .056-.037.111-.13.111-.131 0-1.288-.055-1.904-.055-.522 0-1.735.055-1.884.055-.112 0-.15-.055-.15-.166v-.37c0-.092.038-.13.113-.13h.746c.28 0 .41-.147.429-.295.056-.703.056-1.683.056-2.792V.762c-.355 0-1.402-.019-2.092.166-.467.352-.859.943-1.101 1.424-.038.074-.094.13-.168.093l-.336-.13c-.093-.037-.093-.11-.075-.185C.203 1.794.527.654.68.094.687.064.69.047.713.031" mask="url(#f)"/></g></g></svg>