<svg xmlns="http://www.w3.org/2000/svg" width="165" height="121" viewBox="0 0 165 121" xmlns:xlink="http://www.w3.org/1999/xlink"><defs><path id="a" d="M0 .122v26.561h26.941V.122H0z"/><path id="c" d="M.144 26.663h21.641V.144H.144v26.519z"/><path id="e" d="M37.154 18.253V.037H.184v18.216h36.97z"/></defs><g fill="none" fill-rule="evenodd"><path d="M92.591 40.505h3.974V21.714h-3.974zm-21.45 0h3.846V21.714h-3.846zm5.17 0h4.102V21.714h-4.102zm5.428 0h4.101V21.714h-4.101zm5.425 0h4.101V21.714h-4.101zm7.693-20.118H72.761l11.341-6.931 10.755 6.931m-24.641 0h-9.465v-7.002h20.924l-11.459 7.002m16.226-7.002h20.387v7.002h-9.523l-10.864-7.002m17.468-1.328H63.669C67.608 4.997 75.142.225 83.788.225s16.18 4.771 20.123 11.832M63.85 35.148l-.347 1.053.901-.65.902.65-.344-1.053.901-.65H64.75l-.345-1.052-.344 1.052h-1.114l.903.65zm-3.105-5.974l.902.65-.346 1.053.902-.65.9.65-.343-1.053.901-.65h-1.114l-.344-1.052-.345 1.052h-1.113zm9.072 11.33h-1.219l-.342-1.045.901-.65h-1.114l-.344-1.053-.344 1.052H66.24l.904.65-.344 1.046h-6.05l-.005-11.33.005-4.085.845-.61.901.65-.344-1.052.9-.65H61.94l-.344-1.053-.157.48-.217.573h-.471v-1.713h9.067v18.79zm-1.227 0h-1.783l.892-.643.891.643zM60.75 24.96v-1.092l.265.191-.193.586-.072.315zm.03 21.859h9.038v-4.987H60.78zm37.108 0h8.941v-4.987h-8.941zm-7.884-1.465l.903-.65h-1.114l-.345-1.053-.344 1.052h-1.113l.901.65-.345 1.053.901-.65.902.65-.346-1.052zm-6.733.698l-.253.768H71.141v-4.988h1.465l-.255.78h-1.115l.904.651-.346 1.052.9-.65.902.65-.344-1.052.901-.65H73.04l-.255-.781h22.072l-.255.78h-1.114l.901.65-.344 1.053.901-.65.902.65-.346-1.052.902-.65H95.29l-.256-.781h1.53v4.988h-11.93l-.25-.768.9-.65h-1.113l-.345-1.052-.344 1.052h-1.114l.903.65zm-5.796-.698l-.347 1.052.902-.65.901.65-.344-1.052.901-.65h-1.114l-.344-1.053-.344 1.052h-1.114l.903.65zm6.864 1.466h-1.02l.507-.366.513.366zm19.45-11.672l.904-.65h-1.114l-.344-1.052-.344 1.052h-1.115l.902.65-.345 1.053.902-.65.901.65-.346-1.053zm-2.95 5.356l-.343-1.045.902-.65h-1.113l-.345-1.053-.344 1.052h-1.114l.901.65-.342 1.046.9-.643.89.643h.008zm5.99 0h-8.941v-18.79h8.94v1.713h-.44l-.344-1.053-.344 1.053h-1.114l.901.65-.344 1.052.901-.65.785.566v4.13l-1.048-.001-.345-1.052-.344 1.052h-1.114l.901.65-.344 1.053.901-.65.901.65-.345-1.053.837-.602v11.282zm0-16.592v.861l-.23-.696.23-.165z" fill="#26334D"/><g transform="translate(0 46.626)"><mask id="b" fill="#fff"><use xlink:href="#a"/></mask><path fill="#26334D" d="M13.341 26.683c3.207 0 5.455-.842 6.93-2.195 2.063-1.756 2.874-4.061 3.095-7.061.11-1.427.184-7.83.184-8.342 0-.512 0-5.707.074-6.073.11-.439.221-1.463 1.585-1.463h1.51c.185 0 .222-.146.222-.366V.378c0-.11-.037-.256-.369-.256-.331 0-1.51.11-4.054.11-2.469 0-4.164-.11-4.533-.11-.221 0-.258.073-.258.256v.878c0 .183.037.293.258.293h1.622c.958 0 1.548.658 1.658 1.61.111.914.184 3.036.184 5.816v7.83c0 2.707-.478 4.902-1.916 6.439-1.29 1.317-3.427 2.012-5.528 2.012-2.138 0-4.497-.659-5.86-2.634-.848-1.244-1.142-2.964-1.18-4.647-.036-1.17-.184-5.817-.184-7.756V7.805c0-1.866.037-4.427.074-4.756.074-.805.7-1.5 1.769-1.5h1.843c.258 0 .295-.073.295-.256V.34c0-.146-.037-.219-.332-.219-.405 0-2.175.11-5.05.11C2.507.232.7.122.333.122.037.122 0 .195 0 .415v.804c0 .257.037.33.258.33H1.99c1.143 0 1.4.585 1.4 1.866v8.707c0 4.793.148 7.244.59 8.89.59 2.305 1.88 3.915 4.386 4.902 1.216.513 3.06.769 4.975.769" mask="url(#b)"/></g><path fill="#26334D" d="M42.815 60.694c0-1.63-.08-4.134.12-5.962.08-.557.28-.835 1.281-.835h.4c.16 0 .24-.12.24-.278v-.835c0-.238-.08-.318-.28-.318-.28 0-1.681.12-2.522.12-1.282 0-3.004-.12-3.284-.12-.2 0-.28.08-.28.199v.954c0 .198.08.278.28.278h.68c.682 0 1.282.239 1.483.716.2.476.32 2.782.32 3.736.08 1.272.12 2.504.12 4.77v2.623h-.16c-.48-.517-4.204-5.167-4.925-6.002-.841-.994-5.446-6.757-5.566-6.916-.16-.239-.4-.318-.961-.318-.48 0-1.322.08-1.962.08-.44 0-1.081-.04-1.602-.08-.52 0-.961-.04-1.04-.04-.161 0-.241.12-.241.239v.954c0 .158.08.238.24.238h.36c1.122 0 2.123.676 2.123 2.107v4.174c0 4.491-.08 7.313-.12 7.79-.12.914-.761 1.193-1.162 1.193h-.92c-.12 0-.161.04-.161.119v1.033c0 .199.04.279.12.279.32 0 2.122-.12 2.683-.12 1.161 0 2.763.12 3.043.12.2 0 .2-.08.2-.24V69.4c0-.159 0-.238-.2-.238h-.84c-.401 0-.841-.438-.962-1.352-.08-.358-.24-4.333-.24-6.717v-5.446h.08c.64.716 3.884 5.008 4.845 6.121.441.517 2.163 2.544 4.005 4.73 1.641 1.948 3.003 3.578 3.283 3.856.16.12.56.398.921.398.48 0 .6-.398.6-.756v-9.301zm8.721-.397c0-.279.04-5.009.04-5.406.04-.835.4-.994 1.482-.994h.68c.2 0 .24-.12.24-.278v-.954c0-.12-.08-.2-.24-.2-.32 0-2.362.12-3.523.12-1.882.04-4.365-.12-4.605-.12-.16 0-.24.08-.24.24v.914c0 .159.04.278.24.278h.72c1.683 0 2.043.398 2.043.835 0 .556.08 4.531.08 5.167v1.75c0 1.35-.04 6.399-.08 6.756-.08.716-.72.756-1.722.756h-.88a.23.23 0 0 0-.241.238v.875c0 .198.08.318.24.318.24 0 2.563-.12 3.925-.12 1.801 0 3.883.12 4.204.12.2 0 .24-.12.24-.279v-.954c0-.119-.04-.198-.24-.198h-.6c-1.162 0-1.642-.557-1.723-1.471-.04-.596-.04-5.167-.04-5.406v-1.987zm43.05-5.684c0-.716.601-.875 1.202-.875 1.602 0 2.723.358 3.804 1.034.72.476 1.322 1.55 1.322 2.742 0 1.034-.681 4.134-5.126 4.134-.52 0-.92-.04-1.201-.08v-6.955zm-3.042 6.797c-.04 2.424 0 4.77-.04 6.717 0 .875-.481 1.034-1.442 1.034h-.48c-.16 0-.24.079-.24.198v.915c0 .198.08.318.24.318.28 0 2.322-.12 3.323-.12 1.322 0 3.484.12 3.764.12.24 0 .32-.08.32-.279v-.954c0-.119-.08-.198-.24-.198h-1.041c-.8 0-1.04-.438-1.121-.994V62.92c.28-.08.64-.08 1.041-.08 1.682 0 2.282.875 3.724 3.34.36.596 2.122 3.815 2.883 4.372.68-.04 1.642-.08 2.563-.08.4 0 .88.04 1.24.04.401.04.721.08.802.08.16 0 .24-.12.24-.279v-.795c0-.238-.04-.357-.2-.357-.721 0-1.241-.04-1.802-.438-.76-.556-1.682-1.749-2.242-2.543-1.642-2.306-2.443-3.538-3.364-3.737v-.08c3.164-1.112 4.725-2.702 4.725-5.445 0-.914-.52-2.067-1.402-2.902-1-.874-2.803-1.55-5.205-1.55-.52 0-4.004.12-4.485.12-.72 0-3.203-.12-3.403-.12-.16 0-.24.08-.24.199v.954c0 .159.04.278.16.278h.4c1.121 0 1.481.437 1.522 1.232v6.281zm21.845 9.54c3.644 0 5.566-2.545 5.566-5.526 0-1.987-.48-2.98-1.281-3.816-1-1.033-2.483-1.47-4.325-2.146-.76-.278-2.202-.875-2.803-1.63-.44-.517-.64-1.351-.64-1.947 0-.716.64-2.425 2.842-2.425 1.162 0 2.043.397 2.644 1.073.84.954 1.16 2.345 1.401 2.822.04.12.12.199.24.159l.72-.159c.12-.04.16-.12.16-.238-.04-.557-.4-3.14-.4-4.452 0-.199-.04-.358-.36-.358s-.44 0-.52.12l-.16.277c-.08.2-.28.16-.681-.08-.48-.237-1.322-.516-2.843-.516-1.442 0-2.723.358-3.764 1.193-.88.755-1.722 1.987-1.722 3.338 0 1.948.48 3.22 1.402 4.095 1.2 1.073 3.123 1.788 3.923 2.067 2.123.795 3.685 1.788 3.685 4.054 0 1.71-1.922 2.703-3.204 2.703-1.481 0-2.803-.795-3.404-1.987-.72-1.312-.72-2.147-.72-2.703 0-.16-.16-.239-.32-.279l-.721-.08c-.16 0-.24.12-.28.28-.04.635-.32 3.815-.44 4.928-.041.199.08.358.32.437.32.08.52 0 .6-.198l.12-.318c.08-.318.32-.279.6-.08.921.715 2.323 1.391 4.365 1.391m12.349-10.652c0-.279.04-5.009.04-5.406.04-.835.4-.994 1.482-.994h.68c.2 0 .24-.12.24-.278v-.954c0-.12-.08-.2-.24-.2-.32 0-2.362.12-3.523.12-1.882.04-4.365-.12-4.605-.12-.16 0-.24.08-.24.24v.914c0 .159.04.278.24.278h.72c1.682 0 2.043.398 2.043.835 0 .556.08 4.531.08 5.167v1.75c0 1.35-.04 6.399-.08 6.756-.08.716-.721.756-1.722.756h-.88a.23.23 0 0 0-.241.238v.875c0 .198.08.318.24.318.24 0 2.563-.12 3.924-.12 1.802 0 3.884.12 4.205.12.2 0 .24-.12.24-.279v-.954c0-.119-.04-.198-.24-.198h-.6c-1.162 0-1.643-.557-1.723-1.471-.04-.596-.04-5.167-.04-5.406v-1.987zM19.844 82.005c-.609 0-1.166-.478-1.166-1.283 0-1.182.608-2.717 1.47-4.075 1.267-2.037 2.61-2.994 3.674-2.994.836 0 1.292.63 1.267 1.41 0 1.66-2.61 6.942-5.245 6.942m.38 1.207c3.674 0 5.879-5.005 5.879-7.772 0-1.711-1.014-2.943-2.712-2.943-3.37 0-5.777 4.3-5.777 7.47 0 1.912 1.216 3.245 2.61 3.245m40.956.639c0-.278.04-5.009.04-5.406.04-.835.4-.994 1.482-.994h.68c.2 0 .24-.12.24-.278v-.954c0-.12-.08-.199-.24-.199-.32 0-2.362.12-3.523.12-1.882.04-4.365-.12-4.605-.12-.16 0-.24.08-.24.239v.914c0 .159.04.278.24.278h.72c1.683 0 2.043.398 2.043.835 0 .556.08 4.531.08 5.167v1.75c0 1.35-.04 6.399-.08 6.756-.08.716-.72.756-1.722.756h-.88c-.16 0-.24.119-.24.238v.875c0 .198.08.318.24.318.24 0 2.562-.12 3.923-.12 1.802 0 3.885.12 4.205.12.2 0 .24-.12.24-.279v-.954c0-.119-.04-.198-.24-.198h-.6c-1.162 0-1.643-.557-1.722-1.471-.04-.596-.04-5.167-.04-5.406v-1.987zm9.352-5.684c0-.716.6-.875 1.2-.875 1.603 0 2.724.358 3.805 1.034.72.477 1.321 1.55 1.321 2.742 0 1.034-.68 4.134-5.125 4.134-.52 0-.921-.04-1.201-.08v-6.955zm-3.274 6.797c-.04 2.424 0 4.77-.04 6.717 0 .875-.48 1.034-1.442 1.034h-.48c-.16 0-.24.08-.24.198v.915c0 .198.08.318.24.318.28 0 2.323-.12 3.323-.12 1.322 0 3.484.12 3.764.12.24 0 .32-.08.32-.279v-.954c0-.119-.08-.198-.24-.198h-1.04c-.801 0-1.042-.438-1.122-.994v-5.247c.28-.08.641-.08 1.041-.08 1.682 0 2.283.875 3.724 3.34.36.596 2.123 3.815 2.883 4.372.681-.04 1.642-.08 2.563-.08.4 0 .88.04 1.241.04.4.04.72.08.801.08.16 0 .24-.12.24-.279v-.795c0-.238-.04-.357-.2-.357-.72 0-1.241-.04-1.802-.438-.76-.556-1.681-1.749-2.242-2.543-1.642-2.306-2.443-3.538-3.363-3.737v-.08c3.163-1.112 4.724-2.702 4.724-5.445 0-.914-.52-2.067-1.401-2.902-1.001-.874-2.803-1.55-5.205-1.55-.521 0-4.005.12-4.485.12-.721 0-3.204-.12-3.404-.12-.16 0-.24.08-.24.199v.954c0 .16.04.278.16.278h.4c1.122 0 1.482.437 1.522 1.232v6.281z"/><path fill="#26334D" d="M97.317 88.62c0-.675.761-.834 1.161-.834h.681c.12 0 .2-.12.2-.239v-.954c0-.119-.08-.198-.24-.198-.16 0-1.962.08-3.444.08-2.162 0-4.124-.08-4.364-.08-.16 0-.2.08-.2.198v.954c0 .12.04.2.2.2h.96c1.042 0 1.963.277 1.963 1.192v1.47c0 .795-.08 1.312-.6 1.71-.641.516-1.923.874-3.324.874-1.121 0-2.723-.596-3.844-1.789-1.562-1.63-2.443-3.895-2.443-6.956 0-1.788.881-3.895 2.082-5.207 1.482-1.59 3.043-2.027 4.285-2.027 1.842 0 2.963.795 4.044 1.908.961.954 1.642 2.186 1.922 2.822.12.318.2.358.32.318l.761-.239c.12-.04.16-.119.16-.318-.08-.715-.6-4.411-.6-4.61 0-.278-.08-.438-.44-.438-.321 0-.441.12-.521.279l-.2.358c-.08.119-.24.119-.561-.16-.761-.556-2.642-1.272-4.564-1.272-2.844 0-5.286.835-7.168 2.425a8.673 8.673 0 0 0-2.963 6.519c0 3.1.8 5.247 2.402 6.996 1.882 2.067 5.085 2.902 7.168 2.902 2.563 0 4.724-.557 6.847-1.59.28-.12.44-.24.44-.438 0-.199-.12-.437-.12-.795v-3.06z"/><path fill="#26334D" d="M105.13 83.85c0-.277.04-5.008.04-5.405.04-.835.401-.994 1.482-.994h.68c.201 0 .241-.12.241-.278v-.954c0-.12-.08-.199-.24-.199-.32 0-2.362.12-3.524.12-1.882.04-4.364-.12-4.605-.12-.16 0-.24.08-.24.239v.914c0 .159.04.278.24.278h.721c1.682 0 2.042.398 2.042.835 0 .556.08 4.531.08 5.167v1.75c0 1.35-.04 6.399-.08 6.756-.08.716-.72.756-1.721.756h-.881c-.16 0-.24.119-.24.238v.875c0 .198.08.318.24.318.24 0 2.562-.12 3.924-.12 1.801 0 3.884.12 4.204.12.2 0 .24-.12.24-.279v-.954c0-.119-.04-.198-.24-.198h-.6c-1.162 0-1.642-.557-1.722-1.471-.04-.596-.04-5.167-.04-5.406v-1.987zm21.56.398c0-1.63-.081-4.134.119-5.962.08-.557.28-.835 1.282-.835h.4c.16 0 .24-.119.24-.278v-.835c0-.238-.08-.318-.28-.318-.28 0-1.682.12-2.523.12-1.28 0-3.003-.12-3.283-.12-.2 0-.28.08-.28.2v.953c0 .199.08.278.28.278h.68c.681 0 1.282.238 1.482.715.2.478.32 2.783.32 3.737.08 1.272.12 2.504.12 4.77v2.623h-.16c-.48-.517-4.204-5.167-4.925-6.002-.84-.993-5.446-6.757-5.566-6.916-.16-.239-.4-.318-.96-.318-.481 0-1.322.08-1.963.08-.44 0-1.081-.04-1.601-.08-.521 0-.962-.04-1.042-.04-.16 0-.24.12-.24.239v.954c0 .159.08.238.24.238h.36c1.122 0 2.123.676 2.123 2.107v4.173c0 4.492-.08 7.314-.12 7.791-.12.915-.76 1.193-1.161 1.193h-.921c-.12 0-.16.04-.16.119v1.033c0 .2.04.279.12.279.32 0 2.122-.12 2.683-.12 1.16 0 2.762.12 3.043.12.2 0 .2-.08.2-.239v-.954c0-.159 0-.238-.2-.238h-.84c-.401 0-.842-.438-.962-1.352-.08-.357-.24-4.332-.24-6.717V79.2h.08c.64.716 3.884 5.009 4.845 6.121.44.517 2.162 2.544 4.004 4.73 1.642 1.948 3.003 3.578 3.283 3.856.16.12.56.398.921.398.48 0 .601-.398.601-.756v-9.3zM28.93 73.854h-2.255c-.126 0-.189-.123-.138-.299l.102-.427c.05-.177.225-.58.428-.58h2.205c.76-2.163 1.497-3.923 2.84-5.407.71-.805 2.103-1.711 3.75-1.711 1.47 0 2.281.88 2.281 1.484 0 .78-.507 1.158-1.013 1.158-.811 0-1.04-.453-1.115-1.007-.026-.251-.279-.73-1.04-.73-2.356 0-2.865 3.324-3.701 6.141 0 0 3.521.094 6.396.094 3.096 0 4.754-.11 5.086-.11.332 0 .368.11.368.256v.841c0 .184-.036.33-.294.33h-1.77c-1.031 0-1.547.33-1.547.95 0 .294.037.733.147 1.245.221 1.317 1.585 5.67 2.248 7.72.443 1.39 2.58 7.682 3.428 9.914.848-1.72 3.722-9.256 4.017-10.098.368-.988 1.769-5.195 2.322-6.805.295-.914.516-1.573.516-2.085 0-.439-.258-.841-1.18-.841h-.958c-.147 0-.184-.11-.184-.33v-.841c0-.183.037-.256.221-.256.332 0 2.027.11 4.349.11 2.69 0 3.612-.11 3.943-.11.222 0 .258.073.258.256v.914c0 .147-.036.257-.258.257h-.995c-1.216 0-1.916.585-2.616 1.427-.959 1.17-3.907 8.67-4.534 10.207-.442 1.207-5.196 12.841-5.38 13.207-.148.293-.332.476-.516.476-.295 0-.442-.366-.627-.842a2190.014 2190.014 0 0 0-4.644-13.024l-.368-1.244c-.885-2.598-2.617-7.902-3.096-9-.368-.841-.737-1.207-1.51-1.207l-3.428-.033c-.66 2.038-1.825 6.342-3.092 9.562-1.546 3.924-3.345 6.716-6.056 6.716-1.014 0-1.825-.679-1.825-1.484 0-.578.431-1.081 1.09-1.081.735 0 1.115.704 1.191 1.131.05.252.228.428.431.428 1.216 0 2.585-2.113 3.953-6.767l2.57-8.505zm106.651 9.997v1.987c0 .239 0 4.81.04 5.406.08.914.56 1.47 1.722 1.47h.462c.681 0 1.322-.397 1.642-.834.28-.318 2.322-5.088 3.283-7.075.28-.557 2.643-5.963 2.883-6.638.08-.239.32-.676.04-.795-.08-.08-.2-.279-.16-.398-.04-.08.04-.199.4-.278.762-.12 1.883-.835 2.243-1.153a.51.51 0 0 1 .48-.278c.24 0 .321.159.4.437.561 1.59 2.603 7.274 3.124 8.864.6 1.988 2.323 6.678 2.603 7.075.52.716 1.201 1.074 1.882 1.074h.76c.16 0 .2.119.2.238v.835c0 .12-.04.358-.28.358-.48 0-2.602-.12-3.523-.12-.76 0-3.123.12-3.644.12-.28 0-.32-.199-.32-.358v-.835c0-.12.04-.238.2-.238h.64c.481 0 .641-.358.641-.676-.16-.795-1.24-3.975-1.562-4.89h-6.446c-.16.478-1.442 3.777-1.602 4.254-.24.795-.12 1.312.72 1.312h1.002c.24 0 .28.119.28.278v.874c0 .16-.04.279-.24.279-.32 0-2.442-.12-3.083-.12h-6.629c-1.361 0-3.684.12-3.923.12-.161 0-.24-.12-.24-.318v-.875c0-.12.079-.238.24-.238h.88c1.001 0 1.642-.04 1.722-.756.04-.357.08-5.405.08-6.757v-1.749c0-.636-.08-4.61-.08-5.167 0-.437-.36-.835-2.042-.835h-.721c-.2 0-.24-.12-.24-.278v-.914c0-.16.08-.239.24-.239.24 0 2.723.16 4.605.12 1.161 0 3.203-.12 3.524-.12.16 0 .24.08.24.199v.954c0 .159-.04.278-.24.278h-.68c-1.082 0-1.443.16-1.483.994 0 .397-.04 5.128-.04 5.406m8.31 2.027h5.446c-.16-.556-2.042-6.519-2.122-6.837-.08-.238-.12-.397-.24-.397s-.2.119-.32.437-2.563 6.4-2.763 6.797M62.339 52.744v.914c0 .16-.12.239-.28.239h-.921c-.52 0-1.121.08-1.121.596 0 .914.68 2.465 1.762 5.804.32.993 1.801 5.604 2.041 6.24h.12c.241-.834 2.203-5.763 2.403-6.36 1.522-4.412 2.042-5.485 2.042-5.882 0-.2-.16-.398-.84-.398h-.44c-.161 0-.241-.08-.241-.278v-.915c0-.119.08-.238.24-.238.24 0 2.322.12 3.243.12h6.121l8.97-.04c.4 0 .92-.08 1.081-.08.08 0 .16.08.24.556.08.358 1.202 3.777 1.281 4.055.04.159.04.238-.04.278l-.64.278c-.08.04-.24.04-.36-.159-.08-.119-2.003-2.345-2.683-2.98a2.401 2.401 0 0 0-1.522-.597l-4.245-.08v6.758c.24 0 2.603-.12 2.923-.2 1.041-.277 1.442-.834 1.442-2.066 0-.159.04-.199.2-.199l.881.04c.16 0 .28.08.24.239-.08.357-.08 2.464-.08 2.822 0 .874.12 2.106.16 2.623 0 .16-.08.199-.2.199l-.84.08c-.12 0-.201 0-.241-.16-.2-.993-.44-1.63-1.481-1.868-1.202-.278-2.603-.278-3.004-.278v1.352c0 1.39.08 3.696.08 4.213 0 1.868 1.162 1.987 2.884 1.987 1.761 0 2.883-.04 4.244-1.113.32-.238 1.722-2.027 2.123-2.663.2-.278.4-.318.52-.238l.64.358c.08.04.16.159.12.278l-1.441 4.213c-.08.199-.28.398-.44.398-.28 0-2.403-.12-10.812-.12-.72 0-2.923.12-3.403.12-.2 0-.24-.12-.24-.279V69.4c0-.159.08-.238.28-.238h.36c1.882 0 2.002-.16 2.002-.716V59.98c0-2.107-.04-4.69-.08-5.088-.12-.835-.36-.994-1.962-.994h-.955c-.761 0-1.322.239-1.682.596-.76.755-2.923 5.963-3.324 6.996-.36.835-3.644 8.626-3.964 9.142-.12.199-.32.318-.64.318s-.521-.278-.64-.596c-.882-2.345-3.004-8.109-3.325-8.983l-.28-.875c-.68-1.828-1.882-5.445-2.162-5.843-.32-.437-.64-.755-1.161-.755h-.4c-.16 0-.2-.12-.2-.239v-.993c0-.12.08-.2.24-.2.2 0 2.402.12 3.443.12.96 0 3.404-.12 3.644-.12.24 0 .32.08.32.28"/><g transform="translate(27.18 94.238)"><mask id="d" fill="#fff"><use xlink:href="#c"/></mask><path fill="#26334D" d="M3.877 11.848c0 2.238-.111 11.696-.111 12.393 0 .478-.222.991-1.59.991H.404c-.222 0-.26.073-.26.257v.917c0 .184.038.257.297.257.48 0 1.81-.11 4.73-.11 3.955 0 13.82.037 14.782.11.221-.99 1.7-7.367 1.81-7.624.038-.22.038.066-.073-.008l-.592-.22c-.147-.073-.221 0-.295.147-.518 1.43-2.735 5.834-4.916 6.164-1.146.147-7.685.074-8.498 0-.111-1.504-.111-9.43-.111-10.053v-3.478c0-2.568.111-8.108.111-8.585 0-1.064.148-1.431 1.294-1.431H10.9c.296 0 .37-.11.37-.294V.437c0-.183-.037-.293-.333-.293-.332 0-1.885.11-5.47.11-3.068 0-4.398-.11-4.805-.11C.44.144.403.217.403.4v.807c0 .183.037.367.258.367h1.737c1.11 0 1.294.367 1.368 1.32.037.661.11 4.55.11 6.898v2.055z" mask="url(#d)"/></g><path fill="#26334D" d="M55.621 106.872c0-.281.04-5.062.04-5.464.04-.844.405-1.004 1.498-1.004h.688c.203 0 .243-.121.243-.282v-.964c0-.12-.081-.2-.243-.2-.323 0-2.388.12-3.561.12-1.903.04-4.412-.12-4.655-.12-.162 0-.243.08-.243.24v.924c0 .16.04.282.243.282h.729c1.7 0 2.064.401 2.064.843 0 .563.08 4.58.08 5.223v1.768c0 1.366-.04 6.469-.08 6.83-.081.723-.729.764-1.74.764h-.89a.232.232 0 0 0-.244.24v.884c0 .201.081.322.243.322.243 0 2.59-.12 3.966-.12 1.822 0 3.926.12 4.25.12.202 0 .243-.12.243-.282v-.964c0-.12-.04-.2-.243-.2h-.607c-1.174 0-1.66-.563-1.74-1.487-.04-.603-.04-5.223-.04-5.464v-2.009zm79.544 2.13c.93-1.407 5.625-7.955 6.232-8.277.365-.2.81-.321 1.457-.321h.405c.162 0 .243-.08.243-.282v-.843c0-.241-.081-.322-.283-.322-.243 0-1.66.12-2.388.12-1.214 0-3.238-.12-3.48-.12-.203 0-.284.12-.284.282v.883c0 .16.08.282.283.282h.648c.89 0 .85.522.526 1.165-.162.321-3.522 5.183-4.128 6.187-.648-.964-4.007-6.308-4.25-6.67-.162-.24-.121-.682.607-.682h.607c.243 0 .283-.121.283-.282v-.883c0-.201-.121-.282-.283-.282-.283 0-3.036.12-3.926.12-.971 0-3.076-.12-3.319-.12-.243 0-.323.12-.323.241v.884c0 .241.08.322.283.322h.567c.323 0 1.052.08 1.456.482.648.602 5.586 7.794 5.95 8.517v1.447c0 2.37 0 3.816-.04 4.178-.04.562-.284.804-1.579.804h-.607a.232.232 0 0 0-.243.24v.884c0 .241.081.322.284.322.242 0 2.59-.12 3.48-.12 1.336 0 3.602.12 3.845.12.243 0 .324-.12.324-.282v-.964c0-.12-.081-.2-.283-.2h-.526c-.73 0-1.377-.04-1.457-.884-.081-.483-.041-1.568-.081-2.572v-3.375zm-69.594-3.898c0-1.687 0-3.897.04-4.42.041-.28.122-.481.365-.522.243-.04.526-.04.89-.04.77 0 2.307.282 3.117.884 1.011.764 1.214 1.768 1.214 2.612 0 .844-.405 1.888-1.498 2.651-.809.523-2.266.683-4.128.563v-1.728zm0 2.973c1.295 0 2.47-.04 3.845.442 1.538.523 2.631 1.768 2.631 3.817 0 2.692-2.064 3.736-3.885 3.736-2.024 0-2.59-1.125-2.59-3.053v-4.942zm-5.706-7.955c0 .241 0 .282.202.282h.769c.769 0 1.538.04 1.619 1.406.04.442.121 3.254.121 4.259v2.973c0 2.129 0 5.223-.121 5.785-.122.522-.486 1.004-1.093 1.004h-1.093c-.243 0-.283.04-.283.201v.844c0 .281.04.402.324.402.688 0 2.145-.12 3.238-.12 1.376 0 2.711.12 4.087.12 2.752 0 4.655-.402 5.748-.964 1.335-.603 2.104-2.451 2.104-3.857 0-2.692-1.78-4.219-4.897-5.143v-.08c2.55-.924 3.764-1.567 3.764-4.099 0-1.486-.567-2.691-2.105-3.495-.93-.482-2.63-.683-4.897-.683-.971 0-2.55.12-3.44.12-.688 0-3.44-.12-3.805-.12-.202 0-.242.08-.242.281v.884zm54.739 1.005v7.03c.283.04.688.081 1.214.081 4.493 0 5.18-3.134 5.18-4.178 0-1.206-.607-2.29-1.335-2.773-1.093-.682-2.226-1.044-3.845-1.044-.607 0-1.214.16-1.214.884m-3.076 6.87v-6.348c-.04-.804-.405-1.245-1.538-1.245h-.405c-.121 0-.162-.121-.162-.282v-.964c0-.12.081-.2.243-.2.202 0 2.712.12 3.44.12.486 0 4.007-.12 4.533-.12 2.429 0 4.25.682 5.262 1.566.89.844 1.416 2.009 1.416 2.933 0 2.772-1.578 4.38-4.776 5.504.931.281 1.741 1.527 3.4 3.857.567.804 1.498 2.01 2.267 2.572.567.401 1.093.442 1.82.442.163 0 .203.12.203.361v.804c0 .16-.08.28-.243.28-.08 0-.404-.04-.809-.08-.364 0-.85-.04-1.255-.04-.93 0-1.902.04-2.59.08-.769-.562-2.55-3.816-2.914-4.419-1.457-2.49-2.064-3.375-3.764-3.375-.405 0-.769 0-1.052.08v5.305c.08.562.324 1.004 1.133 1.004h1.052c.162 0 .243.08.243.2v.965c0 .2-.08.28-.324.28-.283 0-2.469-.12-3.804-.12-.682 0-1.595.028-2.612.091-.333.006-.521.008-.854.008-1.108-.002-2.166-.099-2.838-.099-.769 0-3.157.12-3.684.12-.283 0-.323-.2-.323-.36v-.845c0-.12.04-.24.202-.24h.648c.485 0 .647-.362.647-.684-.162-.803-1.254-4.017-1.578-4.941h-6.516c-.162.482-1.458 3.816-1.62 4.299-.242.803-.12 1.326.73 1.326h1.011c.243 0 .283.12.283.28v.885c0 .16-.04.28-.242.28-.138 0-2.393-.09-3.923-.096-1.375-.004-2.141.053-3.524.057-.77-.563-2.55-3.817-2.915-4.42-1.456-2.49-2.064-3.375-3.764-3.375-.404 0-.769 0-1.052.08v5.305c.081.562.324 1.004 1.133 1.004h1.053c.161 0 .242.08.242.2v.965c0 .2-.08.28-.323.28-.284 0-2.47-.12-3.805-.12-1.012 0-3.076.12-3.36.12-.16 0-.242-.12-.242-.32v-.925c0-.12.081-.2.243-.2h.486c.971 0 1.457-.161 1.457-1.045.04-1.969 0-4.34.04-6.79v-6.348c-.04-.804-.405-1.245-1.538-1.245h-.405c-.121 0-.162-.121-.162-.282v-.964c0-.12.081-.2.243-.2.203 0 2.712.12 3.44.12.486 0 4.007-.12 4.534-.12 2.428 0 4.25.682 5.26 1.566.891.844 1.418 2.009 1.418 2.933 0 2.772-1.579 4.38-4.776 5.504.93.281 1.74 1.527 3.4 3.857.566.804 1.497 2.01 2.266 2.572a1.08 1.08 0 0 0 .526-.402c.284-.322 2.348-5.143 3.319-7.152.283-.562 2.671-6.026 2.914-6.71.081-.24.324-.682.04-.803-.08-.08-.202-.28-.16-.402-.042-.08.04-.2.404-.28.768-.121 1.901-.844 2.266-1.166a.515.515 0 0 1 .486-.281c.242 0 .323.16.404.442.567 1.607 2.631 7.352 3.157 8.96.607 2.008 2.348 6.749 2.631 7.15.526.724 1.214 1.086 1.902 1.086h.557c.971 0 1.458-.161 1.458-1.045.04-1.969 0-4.34.04-6.79m-14.925.924h5.504c-.162-.562-2.064-6.589-2.145-6.91-.081-.242-.121-.402-.243-.402-.121 0-.202.12-.324.442-.12.321-2.59 6.468-2.792 6.87m-15.623-7.794v7.03c.283.04.688.081 1.214.081 4.493 0 5.181-3.134 5.181-4.178 0-1.206-.608-2.29-1.336-2.773-1.093-.682-2.226-1.044-3.845-1.044-.607 0-1.214.16-1.214.884"/><g transform="translate(127.583 52.339)"><mask id="f" fill="#fff"><use xlink:href="#e"/></mask><path fill="#26334D" d="M1.53.068c.05-.036.035-.036.156-.023.623.07 2.896.28 7.294.28h1.602c1.309 0 2.718-.052 4.244-.115.767-.022 5.47.036 6.432.036.88 0 3.603-.12 3.884-.12.16 0 .28.08.28.28v.874c0 .159-.04.278-.28.278h-.6c-.722 0-.762.437-.601.676.24.357 3.563 5.644 4.204 6.598.6-.993 3.924-5.803 4.084-6.121.32-.636.36-1.153-.52-1.153h-.641c-.2 0-.28-.12-.28-.278V.405c0-.159.08-.278.28-.278.24 0 2.242.12 3.444.12.72 0 2.122-.12 2.362-.12.2 0 .28.08.28.318v.835c0 .198-.08.278-.24.278h-.4c-.641 0-1.082.12-1.442.318-.6.318-5.246 6.797-6.166 8.188v3.34c.04.993 0 2.066.08 2.543.08.835.72.875 1.441.875h.52c.2 0 .281.08.281.198v.954c0 .16-.08.279-.32.279s-2.483-.12-3.804-.12c-.881 0-3.204.12-3.444.12-.2 0-.28-.08-.28-.318v-.875c0-.12.08-.238.24-.238h.6c1.282 0 1.522-.239 1.562-.795.04-.358.04-1.789.04-4.134v-1.431c-.36-.716-5.245-7.83-5.886-8.427-.339-.336-.907-.445-1.268-.47.238 1.077.562 2.489.69 3.173.04.159-.041.238-.201.318l-.68.199c-.241.08-.361.04-.441-.16-.48-.993-1.161-2.305-2.002-3.06-1.001-.358-3.93-.398-4.652-.398v6.678c0 4.174 0 7.155.04 7.473.08.636.28 1.034.922 1.034h1.521c.2 0 .28.119.28.357v.835c0 .12-.08.239-.28.239-.28 0-2.763-.12-4.084-.12-1.121 0-3.724.12-4.044.12-.24 0-.32-.12-.32-.358V17.1c0-.199.08-.278.24-.278h1.601c.6 0 .881-.318.921-.636.12-1.511.12-3.618.12-6.002V1.637c-.76 0-3.009-.04-4.49.358-1.001.755-1.842 2.028-2.363 3.06-.08.16-.2.28-.36.2l-.721-.279c-.2-.08-.2-.238-.16-.397.231-.722.927-3.174 1.252-4.376.017-.063.024-.101.073-.135" mask="url(#f)"/></g></g></svg>